<svg width="165" height="120" viewBox="0 0 165 120" fill="none" xmlns="http://www.w3.org/2000/svg">
<path d="M105.146 89.9603V118.887H32.9147C24.6849 118.887 17.989 112.399 17.989 104.424C17.989 96.4488 24.6849 89.9603 32.9147 89.9603H105.146Z" fill="#F2F2F2"/>
<path d="M106.92 118.665C106.92 118.96 106.803 119.243 106.596 119.451C106.388 119.66 106.106 119.777 105.812 119.777H31.6281C27.5991 119.777 23.7351 118.172 20.8861 115.313C18.0372 112.455 16.4366 108.578 16.4366 104.535C16.4366 100.493 18.0372 96.6156 20.8861 93.7571C23.7351 90.8986 27.5991 89.2927 31.6281 89.2927H105.812C106.106 89.2927 106.388 89.41 106.596 89.6186C106.804 89.8273 106.92 90.1102 106.92 90.4053C106.92 90.7004 106.804 90.9834 106.596 91.192C106.388 91.4007 106.106 91.5179 105.812 91.5179H31.6281C28.1873 91.5179 24.8873 92.8894 22.4543 95.3306C20.0212 97.7718 18.6544 101.083 18.6544 104.535C18.6544 107.987 20.0212 111.298 22.4543 113.74C24.8873 116.181 28.1873 117.552 31.6281 117.552H105.812C106.106 117.552 106.388 117.67 106.596 117.878C106.803 118.087 106.92 118.37 106.92 118.665Z" fill="#02AAF5"/>
<path d="M105.146 96.6358H27.5253C27.4665 96.6358 27.4101 96.6123 27.3685 96.5706C27.3269 96.5289 27.3036 96.4723 27.3036 96.4133C27.3036 96.3542 27.3269 96.2977 27.3685 96.2559C27.4101 96.2142 27.4665 96.1907 27.5253 96.1907H105.146C105.205 96.1907 105.262 96.2142 105.303 96.2559C105.345 96.2977 105.368 96.3542 105.368 96.4133C105.368 96.4723 105.345 96.5289 105.303 96.5706C105.262 96.6123 105.205 96.6358 105.146 96.6358Z" fill="#CCCCCC"/>
<path d="M105.146 101.976H27.5253C27.4665 101.976 27.4101 101.953 27.3685 101.911C27.3269 101.869 27.3036 101.813 27.3036 101.754C27.3036 101.695 27.3269 101.638 27.3685 101.596C27.4101 101.555 27.4665 101.531 27.5253 101.531H105.146C105.205 101.531 105.262 101.555 105.303 101.596C105.345 101.638 105.368 101.695 105.368 101.754C105.368 101.813 105.345 101.869 105.303 101.911C105.262 101.953 105.205 101.976 105.146 101.976Z" fill="#CCCCCC"/>
<path d="M105.146 107.317H27.5253C27.4665 107.317 27.4101 107.293 27.3685 107.251C27.3269 107.21 27.3036 107.153 27.3036 107.094C27.3036 107.035 27.3269 106.978 27.3685 106.937C27.4101 106.895 27.4665 106.872 27.5253 106.872H105.146C105.205 106.872 105.262 106.895 105.303 106.937C105.345 106.978 105.368 107.035 105.368 107.094C105.368 107.153 105.345 107.21 105.303 107.251C105.262 107.293 105.205 107.317 105.146 107.317Z" fill="#CCCCCC"/>
<path d="M105.146 112.657H27.5253C27.4665 112.657 27.4101 112.634 27.3685 112.592C27.3269 112.55 27.3036 112.493 27.3036 112.434C27.3036 112.375 27.3269 112.319 27.3685 112.277C27.4101 112.235 27.4665 112.212 27.5253 112.212H105.146C105.205 112.212 105.262 112.235 105.303 112.277C105.345 112.319 105.368 112.375 105.368 112.434C105.368 112.493 105.345 112.55 105.303 112.592C105.262 112.634 105.205 112.657 105.146 112.657Z" fill="#CCCCCC"/>
<path d="M160.971 95.4055L142.882 117.93L86.6365 72.4592C80.2281 67.2783 79.0716 58.0106 84.0586 51.8006C89.0456 45.5906 98.317 44.7533 104.725 49.9342L160.971 95.4055Z" fill="#F2F2F2"/>
<path d="M144.402 118.874C144.218 119.104 143.95 119.25 143.658 119.282C143.365 119.314 143.072 119.227 142.843 119.042L85.078 72.3423C81.9407 69.806 79.9361 66.123 79.5051 62.1036C79.0742 58.0843 80.2523 54.0578 82.7802 50.91C85.3081 47.7622 88.9788 45.7508 92.9847 45.3184C96.9906 44.8861 101.004 46.0681 104.141 48.6044L161.906 95.3045C162.02 95.3961 162.114 95.5093 162.184 95.6375C162.254 95.7658 162.298 95.9066 162.313 96.0519C162.329 96.1972 162.316 96.3442 162.275 96.4845C162.234 96.6247 162.166 96.7555 162.074 96.8693C161.983 96.9831 161.87 97.0777 161.742 97.1478C161.614 97.2178 161.474 97.2619 161.329 97.2775C161.184 97.2931 161.038 97.2799 160.898 97.2386C160.758 97.1974 160.628 97.129 160.515 97.0372L102.75 50.3371C101.423 49.2638 99.8986 48.4632 98.2636 47.9811C96.6286 47.499 94.9149 47.3448 93.2205 47.5273C91.526 47.7099 89.884 48.2256 88.3883 49.045C86.8925 49.8644 85.5724 50.9714 84.5031 52.3029C83.4339 53.6343 82.6366 55.1641 82.1567 56.8048C81.6768 58.4455 81.5238 60.165 81.7065 61.865C81.8891 63.565 82.4037 65.2123 83.2209 66.7127C84.0382 68.2132 85.1421 69.5373 86.4695 70.6096L144.235 117.31C144.464 117.495 144.61 117.764 144.641 118.057C144.673 118.35 144.587 118.644 144.402 118.874Z" fill="#CCCCCC"/>
<path d="M156.796 100.604L96.3544 51.7395C96.3317 51.7212 96.3129 51.6985 96.2989 51.6729C96.285 51.6473 96.2762 51.6191 96.2731 51.59C96.2699 51.561 96.2726 51.5316 96.2808 51.5036C96.289 51.4755 96.3026 51.4494 96.3209 51.4266C96.3391 51.4039 96.3617 51.385 96.3873 51.371C96.4128 51.357 96.4409 51.3481 96.4698 51.345C96.4988 51.3419 96.5281 51.3445 96.556 51.3527C96.584 51.361 96.61 51.3746 96.6327 51.393L157.075 100.257C157.097 100.275 157.116 100.298 157.13 100.324C157.144 100.349 157.153 100.377 157.156 100.407C157.159 100.436 157.157 100.465 157.148 100.493C157.14 100.521 157.127 100.547 157.108 100.57C157.09 100.593 157.067 100.612 157.042 100.626C157.016 100.64 156.988 100.649 156.959 100.652C156.93 100.655 156.901 100.652 156.873 100.644C156.845 100.636 156.819 100.622 156.796 100.604V100.604Z" fill="#CCCCCC"/>
<path d="M153.457 104.762L93.0149 55.898C92.9692 55.8609 92.94 55.8072 92.9338 55.7485C92.9275 55.6899 92.9447 55.6312 92.9816 55.5853C93.0185 55.5394 93.072 55.51 93.1304 55.5037C93.1888 55.4973 93.2474 55.5145 93.2932 55.5514L153.735 104.415C153.758 104.434 153.777 104.456 153.791 104.482C153.805 104.508 153.814 104.536 153.817 104.565C153.82 104.594 153.817 104.623 153.809 104.652C153.801 104.68 153.787 104.706 153.769 104.729C153.751 104.751 153.728 104.77 153.702 104.784C153.677 104.798 153.649 104.807 153.62 104.81C153.591 104.813 153.561 104.811 153.534 104.802C153.506 104.794 153.48 104.78 153.457 104.762Z" fill="#CCCCCC"/>
<path d="M150.117 108.92L89.6754 60.0564C89.6296 60.0194 89.6004 59.9656 89.5941 59.907C89.5878 59.8483 89.605 59.7895 89.6419 59.7436C89.6788 59.6976 89.7324 59.6682 89.7909 59.6619C89.8493 59.6556 89.9079 59.6729 89.9537 59.7099L150.396 108.574C150.418 108.592 150.437 108.615 150.451 108.641C150.465 108.666 150.474 108.694 150.477 108.723C150.48 108.752 150.477 108.782 150.469 108.81C150.461 108.838 150.447 108.864 150.429 108.887C150.411 108.91 150.388 108.928 150.363 108.942C150.337 108.956 150.309 108.965 150.28 108.968C150.251 108.972 150.222 108.969 150.194 108.961C150.166 108.952 150.14 108.939 150.117 108.92V108.92Z" fill="#CCCCCC"/>
<path d="M146.778 113.079L86.3359 64.2149C86.3133 64.1966 86.2944 64.1739 86.2804 64.1483C86.2665 64.1226 86.2577 64.0945 86.2546 64.0654C86.2515 64.0364 86.2541 64.007 86.2623 63.979C86.2705 63.9509 86.2841 63.9248 86.3024 63.902C86.3207 63.8793 86.3432 63.8604 86.3688 63.8463C86.3943 63.8323 86.4224 63.8235 86.4514 63.8204C86.4803 63.8173 86.5096 63.8199 86.5375 63.8281C86.5655 63.8364 86.5915 63.85 86.6142 63.8684L147.056 112.732C147.079 112.751 147.098 112.773 147.112 112.799C147.126 112.825 147.135 112.853 147.138 112.882C147.141 112.911 147.138 112.94 147.13 112.968C147.122 112.996 147.108 113.023 147.09 113.045C147.072 113.068 147.049 113.087 147.023 113.101C146.998 113.115 146.97 113.124 146.941 113.127C146.912 113.13 146.882 113.128 146.855 113.119C146.827 113.111 146.801 113.097 146.778 113.079Z" fill="#CCCCCC"/>
<path d="M164.778 120H0.221774C0.162956 120 0.106547 119.977 0.064956 119.935C0.0233653 119.893 0 119.836 0 119.777C0 119.718 0.0233653 119.662 0.064956 119.62C0.106547 119.578 0.162956 119.555 0.221774 119.555H164.778C164.837 119.555 164.893 119.578 164.935 119.62C164.977 119.662 165 119.718 165 119.777C165 119.836 164.977 119.893 164.935 119.935C164.893 119.977 164.837 120 164.778 120Z" fill="#CCCCCC"/>
<path d="M74.9777 86.9198L72.4423 86.9196L71.2365 77.1075L74.9785 77.108L74.9777 86.9198Z" fill="#FFB8B8"/>
<path d="M70.6312 86.1928H75.5208V89.2817H67.5526C67.5526 88.8761 67.6322 88.4744 67.7869 88.0996C67.9416 87.7249 68.1684 87.3843 68.4543 87.0975C68.7401 86.8107 69.0795 86.5831 69.453 86.4279C69.8266 86.2727 70.2269 86.1928 70.6312 86.1928Z" fill="#2F2E41"/>
<path d="M49.0755 86.9198L46.5402 86.9196L45.3344 77.1075L49.0764 77.108L49.0755 86.9198Z" fill="#FFB8B8"/>
<path d="M44.7292 86.1928H49.6188V89.2817H41.6505C41.6505 88.8761 41.7301 88.4744 41.8849 88.0996C42.0396 87.7249 42.2663 87.3843 42.5522 87.0975C42.8381 86.8107 43.1775 86.5831 43.551 86.4279C43.9245 86.2727 44.3249 86.1928 44.7292 86.1928Z" fill="#2F2E41"/>
<path d="M57.5439 14.1372V13.0246C57.5439 11.1213 58.2975 9.29604 59.6388 7.95025C60.9801 6.60446 62.7993 5.8484 64.6962 5.8484H64.6962C66.5931 5.8484 68.4122 6.60446 69.7536 7.95025C71.0949 9.29604 71.8484 11.1213 71.8484 13.0246V14.1372C71.8484 15.5093 71.3051 16.8252 70.3382 17.7954C69.3712 18.7656 68.0597 19.3107 66.6921 19.3107H62.7002C62.0231 19.3107 61.3526 19.1769 60.727 18.9169C60.1014 18.6569 59.533 18.2758 59.0542 17.7954C58.5754 17.315 58.1956 16.7447 57.9364 16.117C57.6773 15.4893 57.5439 14.8166 57.5439 14.1372Z" fill="#2F2E41"/>
<path d="M64.6961 19.6935C67.7044 19.6935 70.1432 17.2466 70.1432 14.2283C70.1432 11.2099 67.7044 8.76302 64.6961 8.76302C61.6879 8.76302 59.2491 11.2099 59.2491 14.2283C59.2491 17.2466 61.6879 19.6935 64.6961 19.6935Z" fill="#FFB8B8"/>
<path d="M35.0679 33.0115C35.289 32.8021 35.5531 32.6439 35.8417 32.5479C36.1303 32.452 36.4363 32.4207 36.7383 32.4563C37.0402 32.4919 37.3307 32.5935 37.5893 32.7539C37.8479 32.9143 38.0683 33.1297 38.2349 33.3848L42.9043 32.4986L44.1331 35.2143L37.5216 36.3729C37.0758 36.6254 36.5533 36.7051 36.0529 36.5968C35.5526 36.4886 35.1092 36.2 34.8067 35.7857C34.5043 35.3713 34.3638 34.8601 34.412 34.3488C34.4601 33.8375 34.6935 33.3617 35.0679 33.0115V33.0115Z" fill="#FFB8B8"/>
<path d="M60.4496 23.1353L60.5106 23.2281L52.8537 28.2891L39.9335 32.4287C39.7622 32.4839 39.6153 32.597 39.5178 32.7486C39.4203 32.9003 39.3782 33.0812 39.3986 33.2605L39.6804 35.6963C39.693 35.8041 39.7278 35.9081 39.7827 36.0016C39.8376 36.0951 39.9113 36.1761 39.9992 36.2394C40.0872 36.3026 40.1873 36.3467 40.2932 36.3688C40.3991 36.391 40.5084 36.3907 40.6142 36.368L52.774 33.7528C53.3625 33.627 53.9189 33.3811 54.4088 33.0306L63.0109 26.8899C63.3228 26.666 63.5716 26.365 63.7332 26.0162C63.8948 25.6673 63.9637 25.2824 63.9332 24.8989C63.9016 24.5149 63.771 24.1457 63.5541 23.8277C63.3372 23.5097 63.0416 23.2539 62.6963 23.0853C62.3509 22.9167 61.9678 22.8412 61.5846 22.8663C61.2014 22.8913 60.8312 23.016 60.5106 23.2281L60.4496 23.1353Z" fill="#CCCCCC"/>
<path d="M72.4876 84.1354C72.293 84.1354 72.1026 84.0786 71.9396 83.9719C71.7767 83.8652 71.6482 83.7131 71.57 83.5344L59.9468 54.7182C59.9197 54.6557 59.8741 54.6031 59.8162 54.5673C59.7584 54.5316 59.691 54.5145 59.6232 54.5183C59.5553 54.5222 59.4903 54.5467 59.4368 54.5888C59.3833 54.6308 59.3439 54.6883 59.3239 54.7535L49.8412 82.8069C49.8012 82.9375 49.735 83.0584 49.6466 83.1624C49.5583 83.2663 49.4497 83.351 49.3275 83.4113C49.2053 83.4715 49.0722 83.5061 48.9362 83.5128C48.8002 83.5195 48.6643 83.4982 48.5369 83.4503L45.357 82.2538C45.1844 82.1894 45.0329 82.0783 44.9195 81.9328C44.8061 81.7873 44.7351 81.613 44.7145 81.4295C43.2839 68.9257 55.7589 37.3646 55.8851 37.0473L55.92 36.9594L67.2919 39.4834L67.3156 39.5092C71.8526 44.4753 75.5819 75.7977 76.2834 82.0263C76.3096 82.2513 76.2585 82.4785 76.1388 82.6705C76.019 82.8624 75.8376 83.0078 75.6245 83.0825L72.8177 84.0785C72.7117 84.1162 72.6001 84.1354 72.4876 84.1354Z" fill="#2F2E41"/>
<path d="M62.6895 40.4993C59.9342 40.4993 56.8625 39.9481 55.917 37.6731L55.8952 37.6209L55.9246 37.5724C56.6709 36.3438 57.6573 34.2479 57.1271 33.8545C56.0827 33.0797 55.576 31.8051 55.6209 30.0661C55.7186 26.2909 58.2823 22.9391 62.0005 21.7256H62.0005C63.0384 21.3924 64.0945 21.1195 65.1637 20.9085C65.9431 20.7507 66.7478 20.768 67.5197 20.9593C68.2917 21.1506 69.0119 21.511 69.6285 22.0147C70.2529 22.5218 70.7577 23.1613 71.1065 23.8873C71.4553 24.6133 71.6394 25.4078 71.6458 26.2138C71.6848 30.2482 71.0657 35.8673 67.8951 39.725C67.7465 39.904 67.5397 40.0247 67.3112 40.0657C65.7858 40.3426 64.2396 40.4876 62.6895 40.4993Z" fill="#CCCCCC"/>
<path d="M61.6646 40.3482C61.8145 39.8085 62.1707 39.35 62.6556 39.0724C63.1406 38.7947 63.7152 38.7203 64.2545 38.8653C64.3647 38.8962 64.472 38.9361 64.5756 38.9846L68.1211 35.7473L70.5868 37.414L65.5166 41.9157C65.2877 42.3299 64.9272 42.6553 64.4927 42.8402C64.0581 43.0252 63.5744 43.059 63.1185 42.9363C62.8529 42.8634 62.6044 42.7383 62.3873 42.5684C62.1702 42.3985 61.9887 42.1872 61.8535 41.9465C61.7183 41.7058 61.632 41.4407 61.5996 41.1663C61.5672 40.892 61.5892 40.6139 61.6646 40.3482Z" fill="#FFB8B8"/>
<path d="M67.5595 40.3893C67.3294 40.3894 67.1064 40.3096 66.9284 40.1634L65.5303 39.017C65.4137 38.9215 65.3202 38.8007 65.2568 38.6637C65.1934 38.5268 65.1616 38.3772 65.1639 38.2262C65.1663 38.0752 65.2026 37.9267 65.2702 37.7918C65.3379 37.6569 65.435 37.5391 65.5545 37.4471L71.4185 32.9346C71.4881 32.8808 71.5336 32.8017 71.5454 32.7145C71.5572 32.6272 71.5342 32.5388 71.4814 32.4685L67.862 27.6674C67.4415 27.1115 67.2306 26.4242 67.2666 25.7272C67.3026 25.0302 67.5832 24.3685 68.0588 23.8592C68.5597 23.3164 69.2456 22.9825 69.9804 22.9235C70.7153 22.8645 71.4454 23.0849 72.0258 23.5408L72.0487 23.5651L75.8282 28.995C76.2369 29.3165 76.566 29.7285 76.7898 30.1987C77.0135 30.6689 77.126 31.1847 77.1182 31.7057C77.1105 32.2267 76.9828 32.7389 76.7452 33.2022C76.5076 33.6656 76.1664 34.0675 75.7483 34.3767L68.1536 40.193C67.9816 40.3205 67.7733 40.3893 67.5595 40.3893Z" fill="#CCCCCC"/>
<path d="M59.8713 12.6908V9.97917L64.6962 7.86526L69.2967 9.97917V12.6908C69.2967 12.8088 69.25 12.922 69.1668 13.0055C69.0836 13.0889 68.9708 13.1358 68.8532 13.1358H60.3149C60.1972 13.1358 60.0844 13.0889 60.0012 13.0055C59.9181 12.922 59.8713 12.8088 59.8713 12.6908Z" fill="#2F2E41"/>
<path d="M64.4747 6.20813C63.7653 3.92989 65.2552 1.31893 67.4577 0.417139C69.6603 -0.484646 72.2954 0.14573 74.1539 1.63562C76.0124 3.1255 77.1655 5.35707 77.7765 7.66385C78.3874 9.97062 78.5034 12.376 78.6162 14.7602C81.3224 15.2589 83.1632 18.4794 82.2258 21.0748C81.2883 23.6703 77.8185 24.9597 75.4222 23.6031C73.0259 22.2466 72.3319 18.5999 74.0613 16.4529C74.8797 15.4369 75.3368 14.1761 75.3603 12.87C75.3838 11.564 74.9724 10.2874 74.1911 9.24246C73.4099 8.19752 72.3036 7.44396 71.0473 7.10113C69.791 6.75831 68.4567 6.84581 67.2556 7.34978C65.9219 7.90939 64.2484 6.4554 64.4747 6.20813Z" fill="#2F2E41"/>
<path d="M34.0677 22.4926C30.8277 22.4712 27.6282 21.7682 24.676 20.4288C24.5002 20.3502 24.351 20.222 24.2466 20.0599C24.1422 19.8977 24.087 19.7086 24.0878 19.5156V11.412C24.0881 11.1465 24.1934 10.892 24.3805 10.7042C24.5676 10.5165 24.8212 10.4109 25.0858 10.4106H43.0495C43.3141 10.4109 43.5678 10.5165 43.7549 10.7043C43.942 10.892 44.0472 11.1465 44.0475 11.412V19.5156C44.0483 19.7086 43.9931 19.8977 43.8887 20.0599C43.7843 20.222 43.6351 20.3502 43.4594 20.4288C40.5071 21.7682 37.3076 22.4712 34.0677 22.4926Z" fill="#02AAF5"/>
<path d="M34.0652 15.9277C33.932 15.9278 33.8002 15.9012 33.6774 15.8495L19.4324 9.81936C19.2487 9.7416 19.0924 9.61042 18.9837 9.44272C18.875 9.27502 18.8189 9.0785 18.8225 8.87849C18.8262 8.67848 18.8895 8.48415 19.0042 8.32057C19.119 8.15698 19.2799 8.03163 19.4663 7.96068L33.7115 2.53846C33.941 2.45072 34.1946 2.45126 34.4237 2.53998L48.478 7.96218C48.6634 8.03371 48.8232 8.15909 48.9372 8.32229C49.0511 8.48549 49.1139 8.67908 49.1176 8.8783C49.1213 9.07753 49.0656 9.27332 48.9578 9.44063C48.8499 9.60794 48.6948 9.73916 48.5122 9.81751L34.4577 15.8475C34.3336 15.9005 34.2001 15.9278 34.0652 15.9277Z" fill="#02AAF5"/>
<path d="M25.7511 20.9802C26.486 20.9802 27.0818 20.3824 27.0818 19.6451C27.0818 18.9077 26.486 18.31 25.7511 18.31C25.0162 18.31 24.4205 18.9077 24.4205 19.6451C24.4205 20.3824 25.0162 20.9802 25.7511 20.9802Z" fill="#3F3D56"/>
<path opacity="0.2" d="M48.5607 8.96157L34.5062 14.9916C34.3966 15.0386 34.2788 15.063 34.1596 15.0633C34.0404 15.0636 33.9224 15.0397 33.8126 14.9933L19.5676 8.96334C19.3887 8.88942 19.2395 8.7578 19.1435 8.58927C19.0807 8.69855 19.0417 8.81999 19.0293 8.94552C19.0168 9.07106 19.0311 9.19781 19.0713 9.31737C19.1114 9.43693 19.1764 9.54656 19.262 9.63898C19.3475 9.7314 19.4517 9.80449 19.5676 9.85341L33.8126 15.8833C33.9224 15.9298 34.0404 15.9536 34.1596 15.9533C34.2788 15.953 34.3966 15.9287 34.5062 15.8817L48.5607 9.85164C48.676 9.80229 48.7796 9.72897 48.8646 9.63651C48.9496 9.54405 49.014 9.43455 49.0537 9.31525C49.0934 9.19595 49.1075 9.06956 49.0949 8.94441C49.0824 8.81927 49.0435 8.69822 48.9809 8.58926C48.8855 8.75643 48.7378 8.88732 48.5607 8.96157Z" fill="black"/>
<path d="M25.863 19.6399C25.9218 19.6399 25.9782 19.6164 26.0198 19.5747C26.0614 19.533 26.0847 19.4764 26.0847 19.4173V11.9716L33.3991 9.29806C33.4579 9.29894 33.5147 9.27634 33.5569 9.23523C33.5991 9.19412 33.6233 9.13787 33.6242 9.07886C33.6251 9.01984 33.6025 8.9629 33.5616 8.92054C33.5206 8.87819 33.4645 8.85391 33.4057 8.85303L26.0913 11.5266C26.0325 11.5252 25.9739 11.5359 25.9193 11.5579C25.8647 11.5799 25.815 11.6128 25.7735 11.6546C25.7314 11.6959 25.698 11.7452 25.6753 11.7997C25.6526 11.8541 25.641 11.9126 25.6412 11.9716V19.4173C25.6412 19.4764 25.6645 19.533 25.7061 19.5747C25.7477 19.6164 25.8041 19.6399 25.863 19.6399Z" fill="#3F3D56"/>
</svg>
